<svg width="20" height="20" viewBox="0 0 20 20" fill="none" xmlns="http://www.w3.org/2000/svg">
<mask id="path-1-inside-1" fill="white">
<path d="M20 10C20 15.5228 15.5228 20 10 20C4.47715 20 0 15.5228 0 10C0 4.47715 4.47715 9.53674e-07 10 9.53674e-07C15.5228 9.53674e-07 20 4.47715 20 10Z"/>
</mask>
<path d="M20 10C20 15.5228 15.5228 20 10 20C4.47715 20 0 15.5228 0 10C0 4.47715 4.47715 9.53674e-07 10 9.53674e-07C15.5228 9.53674e-07 20 4.47715 20 10Z" fill="#508292"/>
<path d="M2.1746 4.87963C4.05063 6.48765 7.06246 7.25 10 7.25C12.9375 7.25 15.9494 6.48765 17.8254 4.87963L17.1746 4.12037C15.5506 5.51235 12.8125 6.25 10 6.25C7.18754 6.25 4.44937 5.51235 2.8254 4.12037L2.1746 4.87963ZM17.8254 15.1204C15.9494 13.5124 12.9375 12.75 10 12.75C7.06246 12.75 4.05063 13.5124 2.1746 15.1204L2.8254 15.8796C4.44937 14.4877 7.18754 13.75 10 13.75C12.8125 13.75 15.5506 14.4877 17.1746 15.8796L17.8254 15.1204ZM13.3536 19.3536C14.2015 18.5056 14.7914 17.1157 15.1736 15.5313C15.5597 13.9305 15.75 12.062 15.75 10.1875C15.75 8.31262 15.5596 6.41462 15.1746 4.75424C14.7924 3.10597 14.2065 1.63926 13.3796 0.674604L12.6204 1.3254C13.2935 2.11074 13.8326 3.39403 14.2004 4.98013C14.5654 6.55413 14.75 8.37488 14.75 10.1875C14.75 12.0005 14.5653 13.7882 14.2014 15.2968C13.8336 16.8218 13.2985 17.9944 12.6464 18.6464L13.3536 19.3536ZM6.62037 0.674604C5.79566 1.63677 5.20908 3.06936 4.82605 4.68128C4.44054 6.30362 4.25 8.15568 4.25 10C4.25 11.8443 4.44054 13.6964 4.82605 15.3187C5.20908 16.9306 5.79566 18.3632 6.62037 19.3254L7.37963 18.6746C6.70434 17.8868 6.16592 16.6319 5.79895 15.0875C5.43446 13.5536 5.25 11.7807 5.25 10C5.25 8.21932 5.43446 6.44638 5.79895 4.91247C6.16592 3.36814 6.70434 2.11323 7.37963 1.3254L6.62037 0.674604ZM9.5 9.53674e-07V20H10.5V9.53674e-07H9.5ZM0 10.5H20V9.5H0V10.5ZM19 10C19 14.9706 14.9706 19 10 19V21C16.0751 21 21 16.0751 21 10H19ZM10 19C5.02944 19 1 14.9706 1 10H-1C-1 16.0751 3.92487 21 10 21V19ZM1 10C1 5.02944 5.02944 1 10 1V-0.999999C3.92487 -0.999999 -1 3.92487 -1 10H1ZM10 1C14.9706 1 19 5.02944 19 10H21C21 3.92487 16.0751 -0.999999 10 -0.999999V1Z" fill="#032700" mask="url(#path-1-inside-1)"/>
</svg>
