<svg width="47" height="47" viewBox="0 0 47 47" fill="none" xmlns="http://www.w3.org/2000/svg">
<path d="M0 14.2866L1.71255 14.418C3.48853 12.3378 4.18624 6.18488 14.6518 7.38919C14.2713 33.7526 3.10796 36.5335 3.80567 41.9419C4.05938 45.0074 6.40621 46.8905 8.94332 47C16.9564 46.7153 16.5969 35.5262 19.0918 7.3235H29.4305C28.8808 17.2645 27.3797 27.2055 27.2105 36.9495C27.3374 43.4309 31.1431 46.8905 36.1538 46.9343C44.3995 47.219 47 37.256 47 33.0081H45.224C45.0549 36.5116 43.4269 39.0297 39.9595 39.1829C30.5088 39.3143 35.7099 21.9723 35.7733 7.45488L47 7.52057L46.9366 0.0976433C0.273988 -0.136451 6.1968 -1.08387 0 14.2866Z" fill="white"/>
</svg>
